<svg width="512" height="512" viewBox="0 0 512 512" xmlns="http://www.w3.org/2000/svg" role="img" aria-label="VegDog logo">
  <defs>
    <linearGradient id="bg" x1="0" y1="0" x2="1" y2="1">
      <stop offset="0%" stop-color="#E9FAD8"/>
      <stop offset="100%" stop-color="#C9ED9E"/>
    </linearGradient>
  </defs>
  <rect width="512" height="512" rx="96" fill="url(#bg)"/>

  <ellipse cx="256" cy="278" rx="138" ry="122" fill="#70B85D"/>
  <ellipse cx="256" cy="302" rx="108" ry="84" fill="#F2C8A4"/>

  <ellipse cx="202" cy="246" rx="20" ry="14" fill="#FFFFFF"/>
  <ellipse cx="310" cy="246" rx="20" ry="14" fill="#FFFFFF"/>
  <circle cx="204" cy="246" r="7" fill="#1F1F1F"/>
  <circle cx="308" cy="246" r="7" fill="#1F1F1F"/>
  <ellipse cx="256" cy="294" rx="28" ry="18" fill="#1F1F1F"/>
  <path d="M216 328 C236 350, 276 350, 296 328" stroke="#7C3E2A" stroke-width="10" fill="none" stroke-linecap="round"/>

  <path d="M170 186 C178 152, 206 130, 238 130" stroke="#4A9145" stroke-width="20" fill="none" stroke-linecap="round"/>
  <path d="M274 130 C306 130, 334 152, 342 186" stroke="#4A9145" stroke-width="20" fill="none" stroke-linecap="round"/>

  <rect x="346" y="136" width="14" height="140" rx="7" transform="rotate(-24 353 206)" fill="#D93A3A"/>
  <ellipse cx="326" cy="126" rx="44" ry="12" transform="rotate(-24 326 126)" fill="#F7F7F7"/>

  <circle cx="405" cy="308" r="16" fill="#FFFFFF" stroke="#8A8A8A" stroke-width="4"/>
  <path d="M140 392 C182 418, 330 418, 372 392" stroke="#5F8A47" stroke-width="10" fill="none" stroke-linecap="round"/>
</svg>
